<svg viewBox="0 0 1440 416" xmlns="http://www.w3.org/2000/svg"><g fill="none" stroke-miterlimit="10" stroke-width="5"><circle cx="1203.2" cy="279.7" r="8.4" stroke="#c9e068"/><circle cx="1372.9" cy="75.1" r="8.4" stroke="#c9e068"/><circle cx="1165.4" cy="83.5" r="8.4" stroke="#6abe05"/></g><path d="M1332.2 212.8h13.9v13.9h-13.9zm-52.5 0h13.9v13.9h-13.9zm-17.5-11.6h102.9v11.6h-102.9z" fill="#121112"/><path d="M1262.2 174h102.9v27.1h-102.9z" fill="#d52b27"/><path d="M1336.3 416h-13.6V120.6h9.5l.8 53.4.3 27.2.2 11.6.2 13.9 1.4 103.2zm-33.1-295.4V416h-13.7l1.2-86.1 1.5-103.2.2-13.9.1-11.6.4-27.2.7-53.4z" fill="#ffd687"/></svg>